<mxfile host="app.diagrams.net" modified="2023-11-16T11:18:16.486Z" agent="Mozilla/5.0 (Windows NT 10.0; Win64; x64) AppleWebKit/537.36 (KHTML, like Gecko) Chrome/119.0.0.0 Safari/537.36" etag="YSTBuneayOn4XRI-6NFD" version="22.1.2" type="device">
  <diagram name="Pagina-1" id="BMupMRvCXHpjx_rXA8Mp">
    <mxGraphModel dx="548" dy="347" grid="1" gridSize="10" guides="1" tooltips="1" connect="1" arrows="1" fold="1" page="1" pageScale="1" pageWidth="3300" pageHeight="2339" math="0" shadow="0">
      <root>
        <mxCell id="0" />
        <mxCell id="1" parent="0" />
        <mxCell id="NaWDhg6aUQIwYj67lBHU-4" value="" style="endArrow=classic;html=1;rounded=0;" edge="1" parent="1">
          <mxGeometry width="50" height="50" relative="1" as="geometry">
            <mxPoint x="120" y="200" as="sourcePoint" />
            <mxPoint x="120" y="40" as="targetPoint" />
          </mxGeometry>
        </mxCell>
        <mxCell id="NaWDhg6aUQIwYj67lBHU-5" value="" style="endArrow=classic;html=1;rounded=0;" edge="1" parent="1">
          <mxGeometry width="50" height="50" relative="1" as="geometry">
            <mxPoint x="120" y="200" as="sourcePoint" />
            <mxPoint x="400" y="200" as="targetPoint" />
          </mxGeometry>
        </mxCell>
        <mxCell id="NaWDhg6aUQIwYj67lBHU-6" value="" style="rounded=0;whiteSpace=wrap;html=1;" vertex="1" parent="1">
          <mxGeometry x="140" y="130" width="20" height="70" as="geometry" />
        </mxCell>
        <mxCell id="NaWDhg6aUQIwYj67lBHU-7" value="" style="rounded=0;whiteSpace=wrap;html=1;" vertex="1" parent="1">
          <mxGeometry x="180" y="100" width="20" height="100" as="geometry" />
        </mxCell>
        <mxCell id="NaWDhg6aUQIwYj67lBHU-8" value="" style="rounded=0;whiteSpace=wrap;html=1;" vertex="1" parent="1">
          <mxGeometry x="220" y="80" width="20" height="120" as="geometry" />
        </mxCell>
        <mxCell id="NaWDhg6aUQIwYj67lBHU-9" value="" style="rounded=0;whiteSpace=wrap;html=1;" vertex="1" parent="1">
          <mxGeometry x="260" y="120" width="20" height="80" as="geometry" />
        </mxCell>
        <mxCell id="NaWDhg6aUQIwYj67lBHU-10" value="" style="rounded=0;whiteSpace=wrap;html=1;" vertex="1" parent="1">
          <mxGeometry x="300" y="160" width="20" height="40" as="geometry" />
        </mxCell>
        <mxCell id="NaWDhg6aUQIwYj67lBHU-11" value="# samples" style="text;html=1;strokeColor=none;fillColor=none;align=center;verticalAlign=middle;whiteSpace=wrap;rounded=0;" vertex="1" parent="1">
          <mxGeometry x="130" y="30" width="60" height="30" as="geometry" />
        </mxCell>
        <mxCell id="NaWDhg6aUQIwYj67lBHU-13" value="damage level" style="text;html=1;strokeColor=none;fillColor=none;align=center;verticalAlign=middle;whiteSpace=wrap;rounded=0;" vertex="1" parent="1">
          <mxGeometry x="340" y="200" width="100" height="30" as="geometry" />
        </mxCell>
        <mxCell id="NaWDhg6aUQIwYj67lBHU-14" value="1" style="text;html=1;strokeColor=none;fillColor=none;align=center;verticalAlign=middle;whiteSpace=wrap;rounded=0;" vertex="1" parent="1">
          <mxGeometry x="120" y="200" width="60" height="30" as="geometry" />
        </mxCell>
        <mxCell id="NaWDhg6aUQIwYj67lBHU-16" value="2" style="text;html=1;strokeColor=none;fillColor=none;align=center;verticalAlign=middle;whiteSpace=wrap;rounded=0;" vertex="1" parent="1">
          <mxGeometry x="160" y="200" width="60" height="30" as="geometry" />
        </mxCell>
        <mxCell id="NaWDhg6aUQIwYj67lBHU-17" value="3" style="text;html=1;strokeColor=none;fillColor=none;align=center;verticalAlign=middle;whiteSpace=wrap;rounded=0;" vertex="1" parent="1">
          <mxGeometry x="200" y="200" width="60" height="30" as="geometry" />
        </mxCell>
        <mxCell id="NaWDhg6aUQIwYj67lBHU-18" value="4" style="text;html=1;strokeColor=none;fillColor=none;align=center;verticalAlign=middle;whiteSpace=wrap;rounded=0;" vertex="1" parent="1">
          <mxGeometry x="240" y="200" width="60" height="30" as="geometry" />
        </mxCell>
        <mxCell id="NaWDhg6aUQIwYj67lBHU-19" value="5" style="text;html=1;strokeColor=none;fillColor=none;align=center;verticalAlign=middle;whiteSpace=wrap;rounded=0;" vertex="1" parent="1">
          <mxGeometry x="280" y="200" width="60" height="30" as="geometry" />
        </mxCell>
        <mxCell id="NaWDhg6aUQIwYj67lBHU-32" value="" style="verticalLabelPosition=bottom;shadow=0;dashed=0;align=center;html=1;verticalAlign=top;strokeWidth=1;shape=mxgraph.mockup.navigation.scrollBar;strokeColor=#999999;barPos=20;fillColor2=#99ddff;strokeColor2=none;direction=north;" vertex="1" parent="1">
          <mxGeometry x="510" y="80" width="20" height="280" as="geometry" />
        </mxCell>
        <mxCell id="NaWDhg6aUQIwYj67lBHU-52" value="Assets" style="childLayout=tableLayout;recursiveResize=0;strokeColor=#666666;fillColor=#f5f5f5;shadow=1;fontStyle=1;fontColor=#333333;" vertex="1" parent="1">
          <mxGeometry x="120" y="250" width="187" height="99" as="geometry" />
        </mxCell>
        <mxCell id="NaWDhg6aUQIwYj67lBHU-79" style="shape=tableRow;horizontal=0;startSize=0;swimlaneHead=0;swimlaneBody=0;top=0;left=0;bottom=0;right=0;dropTarget=0;collapsible=0;recursiveResize=0;expand=0;fontStyle=0;strokeColor=inherit;fillColor=#FFFFFF;" vertex="1" parent="NaWDhg6aUQIwYj67lBHU-52">
          <mxGeometry width="187" height="33" as="geometry" />
        </mxCell>
        <mxCell id="NaWDhg6aUQIwYj67lBHU-80" value="&lt;font color=&quot;#000000&quot;&gt;Gini index:&lt;/font&gt;" style="connectable=0;recursiveResize=0;strokeColor=inherit;fillColor=#FFFFFF;align=center;fontStyle=1;fontColor=#FFFFFF;html=1;" vertex="1" parent="NaWDhg6aUQIwYj67lBHU-79">
          <mxGeometry width="110" height="33" as="geometry">
            <mxRectangle width="110" height="33" as="alternateBounds" />
          </mxGeometry>
        </mxCell>
        <mxCell id="NaWDhg6aUQIwYj67lBHU-81" value="&lt;font color=&quot;#000000&quot;&gt;&lt;i&gt;&amp;lt;value&amp;gt;&lt;/i&gt;&lt;/font&gt;" style="connectable=0;recursiveResize=0;strokeColor=inherit;fillColor=#FFFFFF;align=center;fontStyle=0;fontColor=#FFFFFF;html=1;" vertex="1" parent="NaWDhg6aUQIwYj67lBHU-79">
          <mxGeometry x="110" width="77" height="33" as="geometry">
            <mxRectangle width="77" height="33" as="alternateBounds" />
          </mxGeometry>
        </mxCell>
        <mxCell id="NaWDhg6aUQIwYj67lBHU-76" style="shape=tableRow;horizontal=0;startSize=0;swimlaneHead=0;swimlaneBody=0;top=0;left=0;bottom=0;right=0;dropTarget=0;collapsible=0;recursiveResize=0;expand=0;fontStyle=0;strokeColor=inherit;fillColor=#FFFFFF;fontColor=#000000;" vertex="1" parent="NaWDhg6aUQIwYj67lBHU-52">
          <mxGeometry y="33" width="187" height="33" as="geometry" />
        </mxCell>
        <mxCell id="NaWDhg6aUQIwYj67lBHU-77" value="CBR:" style="connectable=0;recursiveResize=0;strokeColor=inherit;fillColor=#FFFFFF;align=center;fontStyle=1;fontColor=#000000;html=1;" vertex="1" parent="NaWDhg6aUQIwYj67lBHU-76">
          <mxGeometry width="110" height="33" as="geometry">
            <mxRectangle width="110" height="33" as="alternateBounds" />
          </mxGeometry>
        </mxCell>
        <mxCell id="NaWDhg6aUQIwYj67lBHU-78" value="&lt;i style=&quot;border-color: var(--border-color); font-weight: 400;&quot;&gt;&amp;lt;value&amp;gt;&lt;/i&gt;" style="connectable=0;recursiveResize=0;strokeColor=inherit;fillColor=#FFFFFF;align=center;fontStyle=1;fontColor=#000000;html=1;" vertex="1" parent="NaWDhg6aUQIwYj67lBHU-76">
          <mxGeometry x="110" width="77" height="33" as="geometry">
            <mxRectangle width="77" height="33" as="alternateBounds" />
          </mxGeometry>
        </mxCell>
        <mxCell id="NaWDhg6aUQIwYj67lBHU-82" style="shape=tableRow;horizontal=0;startSize=0;swimlaneHead=0;swimlaneBody=0;top=0;left=0;bottom=0;right=0;dropTarget=0;collapsible=0;recursiveResize=0;expand=0;fontStyle=0;strokeColor=inherit;fillColor=#FFFFFF;fontColor=#000000;" vertex="1" parent="NaWDhg6aUQIwYj67lBHU-52">
          <mxGeometry y="66" width="187" height="33" as="geometry" />
        </mxCell>
        <mxCell id="NaWDhg6aUQIwYj67lBHU-83" value="Class entropy:" style="connectable=0;recursiveResize=0;strokeColor=inherit;fillColor=#FFFFFF;align=center;fontStyle=1;fontColor=#000000;html=1;" vertex="1" parent="NaWDhg6aUQIwYj67lBHU-82">
          <mxGeometry width="110" height="33" as="geometry">
            <mxRectangle width="110" height="33" as="alternateBounds" />
          </mxGeometry>
        </mxCell>
        <mxCell id="NaWDhg6aUQIwYj67lBHU-84" value="&lt;i style=&quot;border-color: var(--border-color); font-weight: 400;&quot;&gt;&amp;lt;value&amp;gt;&lt;/i&gt;" style="connectable=0;recursiveResize=0;strokeColor=inherit;fillColor=#FFFFFF;align=center;fontStyle=1;fontColor=#000000;html=1;" vertex="1" parent="NaWDhg6aUQIwYj67lBHU-82">
          <mxGeometry x="110" width="77" height="33" as="geometry">
            <mxRectangle width="77" height="33" as="alternateBounds" />
          </mxGeometry>
        </mxCell>
        <mxCell id="NaWDhg6aUQIwYj67lBHU-85" value="Refuse balancing" style="rounded=1;fillColor=#0057D8;align=center;strokeColor=none;html=1;whiteSpace=wrap;fontColor=#ffffff;fontSize=12;sketch=0;" vertex="1" parent="1">
          <mxGeometry x="360" y="380" width="80" height="40" as="geometry" />
        </mxCell>
        <mxCell id="NaWDhg6aUQIwYj67lBHU-86" value="" style="html=1;shadow=0;dashed=0;shape=mxgraph.atlassian.close;fillColor=#BA3200;strokeColor=none;html=1;sketch=0;" vertex="1" parent="1">
          <mxGeometry x="340" y="393" width="14" height="14" as="geometry" />
        </mxCell>
        <mxCell id="NaWDhg6aUQIwYj67lBHU-87" value="Accept balancing" style="rounded=1;fillColor=#0057D8;align=center;strokeColor=none;html=1;whiteSpace=wrap;fontColor=#ffffff;fontSize=12;sketch=0;" vertex="1" parent="1">
          <mxGeometry x="185" y="380" width="86" height="40" as="geometry" />
        </mxCell>
        <mxCell id="NaWDhg6aUQIwYj67lBHU-88" value="" style="html=1;shadow=0;dashed=0;shape=mxgraph.atlassian.checkbox;fillColor=#008465;strokeColor=none;html=1;sketch=0;" vertex="1" parent="1">
          <mxGeometry x="166" y="393" width="14" height="14" as="geometry" />
        </mxCell>
      </root>
    </mxGraphModel>
  </diagram>
</mxfile>
